<?xml version="1.0" encoding="utf-8"?>
<!-- Generator: Adobe Illustrator 26.1.0, SVG Export Plug-In . SVG Version: 6.00 Build 0)  -->
<svg version="1.1" id="a" xmlns="http://www.w3.org/2000/svg" xmlns:xlink="http://www.w3.org/1999/xlink" x="0px" y="0px"
	 viewBox="0 0 80 40" style="enable-background:new 0 0 80 40;" xml:space="preserve">
<style type="text/css">
	.st0{fill-rule:evenodd;clip-rule:evenodd;fill:#0C2579;}
	.st1{fill-rule:evenodd;clip-rule:evenodd;fill:#FF000B;}
	.st2{fill:none;}
</style>
<g id="b" transform="translate(-94 -29.948)">
	<path id="c" class="st0" d="M129.5,47.3v6.3c1.9,0.4,3.9,0.6,5.9,0.6c2,0,4-0.2,5.9-0.6v-2.2c-2,0.3-3.9,0.5-5.9,0.5
		c-1.1,0-2.2-0.1-3.4-0.3v-2.5c1.1-0.2,2.2-0.2,3.4-0.3c2,0,4,0.2,5.9,0.5v-2.2c-1.9-0.4-3.9-0.6-5.9-0.6
		C133.4,46.7,131.4,46.9,129.5,47.3L129.5,47.3L129.5,47.3z"/>
	<path id="d" class="st0" d="M144.1,54.1h2.6v-7.2h-2.6V54.1z"/>
	<path id="e" class="st0" d="M109.5,54.1h2.6v-7.2h-2.6C109.5,46.9,109.5,54.1,109.5,54.1z"/>
	<path id="f" class="st0" d="M124.1,51.4c-1.5-1-3-2-4.6-2.8c-1.4-0.7-3-1.3-4.5-1.6v7.2h2.5v-3.9c0.6,0.2,1.2,0.5,2,0.9
		c1.6,0.8,3.2,1.8,4.6,2.9h2.5v-7.2h-2.5L124.1,51.4L124.1,51.4L124.1,51.4z"/>
	<path id="g" class="st0" d="M101.3,51.1c-0.6-0.5-4.5-4.3-4.5-4.3l-1.9,1.8l6.4,5.8l6.4-5.8l-1.9-1.8
		C105.8,46.8,101.9,50.6,101.3,51.1C101.3,51.1,101.3,51.1,101.3,51.1z"/>
	<path id="h" class="st1" d="M164.5,45.8c0.6,0,1-0.5,1-1l0,0v-3.9c0-0.6-0.4-1-1-1h-3.9c-0.6,0-1,0.4-1,1l0,0v3
		c-0.1,0.8-0.4,1.5-1,2c-0.7,0.6-1.5,1-2.5,1h-3.6v5.9h5.9v-3.6c0-0.9,0.3-1.8,1-2.5c0.5-0.6,1.3-0.9,2.1-1H164.5L164.5,45.8z"/>
	<path id="i" class="st1" d="M172,47.6c-0.6-0.6-1.5-1-2.4-1c-1.9,0-3.5,1.6-3.5,3.5c0,0.4,0.2,1,0.2,1.3c0,1.5-1.2,2.7-2.7,2.7
		h-2.9c-0.6,0-1,0.5-1,1l0,0V59c0,0.5,0.4,1,1,1h3.9c0.6,0,1-0.5,1-1l0,0v-2.9c0-1.5,1.2-2.7,2.7-2.7l0,0c0.3,0,0.9,0.1,1.3,0.1
		c1.9,0,3.5-1.6,3.5-3.5C173,49.2,172.6,48.3,172,47.6L172,47.6z"/>
</g>
<rect y="0" class="st2" width="80" height="40"/>
</svg>
